<svg xmlns="http://www.w3.org/2000/svg" viewBox="0 0 992 296" font-family="-apple-system,BlinkMacSystemFont,'Segoe UI',Helvetica,Arial,sans-serif" role="img" aria-label="Project workflow: a completed wave of experiments fans out to five reflection lenses (Amplify what works, Avoid what failed, Entropy and weird bets, plus two agent-chosen), then synthesis, adversarial review, and publish; rejected reviews send work back to synthesis or the lenses"><defs><marker id="fwd" viewBox="0 0 10 10" refX="8" refY="5" markerWidth="7" markerHeight="7" orient="auto-start-reverse"><path d="M 0 0 L 10 5 L 0 10 z" fill="#6e7781"/></marker><marker id="ret" viewBox="0 0 10 10" refX="8" refY="5" markerWidth="7" markerHeight="7" orient="auto-start-reverse"><path d="M 0 0 L 10 5 L 0 10 z" fill="#8b949e"/></marker></defs><text x="24" y="32" font-size="12" fill="#59636e">solid arrow = forward · dashed = review sends work back · purple = adversarial review</text><rect x="24" y="108" width="160" height="64" rx="10" fill="#f6f8fa" stroke="#d0d7de" stroke-width="1.5" stroke-dasharray="5 4"/><text x="104" y="136" text-anchor="middle" font-size="14" font-weight="600" fill="#59636e">Completed work</text><text x="104" y="155" text-anchor="middle" font-size="11" fill="#818b95">a wave of experiments</text><rect x="416" y="108" width="160" height="64" rx="10" fill="#ffffff" stroke="#d0d7de" stroke-width="1.5"/><text x="496" y="136" text-anchor="middle" font-size="14" font-weight="600" fill="#1f2328">Synthesis</text><text x="496" y="155" text-anchor="middle" font-size="11" fill="#59636e">report · graph · spec</text><rect x="612" y="108" width="160" height="64" rx="10" fill="#f1eafe" stroke="#c9b3f5" stroke-width="1.5"/><text x="692" y="136" text-anchor="middle" font-size="14" font-weight="600" fill="#5b3fbc">Reflection review</text><text x="692" y="155" text-anchor="middle" font-size="11" fill="#8a76c9">adversarial check</text><rect x="808" y="108" width="160" height="64" rx="10" fill="#e9f7ef" stroke="#8fd6ac" stroke-width="1.5"/><text x="888" y="136" text-anchor="middle" font-size="14" font-weight="600" fill="#1a7f4b">Publish</text><text x="888" y="155" text-anchor="middle" font-size="11" fill="#549f77">sets up the next wave</text><text x="300" y="52" text-anchor="middle" font-size="11" fill="#59636e">3 core lenses + 2 designed for this project</text><rect x="220" y="59" width="160" height="26" rx="13" fill="#ffffff" stroke="#d0d7de" stroke-width="1.5"/><text x="300" y="76" text-anchor="middle" font-size="11" font-weight="600" fill="#1f2328">Amplify · what worked</text><line x1="186" y1="140" x2="214" y2="72" stroke="#6e7781" stroke-width="1.2" marker-end="url(#fwd)"/><line x1="382" y1="72" x2="412" y2="124" stroke="#6e7781" stroke-width="1.2" marker-end="url(#fwd)"/><rect x="220" y="93" width="160" height="26" rx="13" fill="#ffffff" stroke="#d0d7de" stroke-width="1.5"/><text x="300" y="110" text-anchor="middle" font-size="11" font-weight="600" fill="#1f2328">Avoid · what failed</text><line x1="186" y1="140" x2="214" y2="106" stroke="#6e7781" stroke-width="1.2" marker-end="url(#fwd)"/><line x1="382" y1="106" x2="412" y2="132" stroke="#6e7781" stroke-width="1.2" marker-end="url(#fwd)"/><rect x="220" y="127" width="160" height="26" rx="13" fill="#ffffff" stroke="#d0d7de" stroke-width="1.5"/><text x="300" y="144" text-anchor="middle" font-size="11" font-weight="600" fill="#1f2328">Entropy · weird bets</text><line x1="186" y1="140" x2="214" y2="140" stroke="#6e7781" stroke-width="1.2" marker-end="url(#fwd)"/><line x1="382" y1="140" x2="412" y2="140" stroke="#6e7781" stroke-width="1.2" marker-end="url(#fwd)"/><rect x="220" y="161" width="160" height="26" rx="13" fill="#ffffff" stroke="#d0d7de" stroke-width="1.5" stroke-dasharray="5 4"/><text x="300" y="178" text-anchor="middle" font-size="11" font-weight="400" fill="#59636e">Agent-chosen lens</text><line x1="186" y1="140" x2="214" y2="174" stroke="#6e7781" stroke-width="1.2" marker-end="url(#fwd)"/><line x1="382" y1="174" x2="412" y2="148" stroke="#6e7781" stroke-width="1.2" marker-end="url(#fwd)"/><rect x="220" y="195" width="160" height="26" rx="13" fill="#ffffff" stroke="#d0d7de" stroke-width="1.5" stroke-dasharray="5 4"/><text x="300" y="212" text-anchor="middle" font-size="11" font-weight="400" fill="#59636e">Agent-chosen lens</text><line x1="186" y1="140" x2="214" y2="208" stroke="#6e7781" stroke-width="1.2" marker-end="url(#fwd)"/><line x1="382" y1="208" x2="412" y2="156" stroke="#6e7781" stroke-width="1.2" marker-end="url(#fwd)"/><line x1="578" y1="140" x2="609" y2="140" stroke="#6e7781" stroke-width="1.5" marker-end="url(#fwd)"/><line x1="774" y1="140" x2="805" y2="140" stroke="#6e7781" stroke-width="1.5" marker-end="url(#fwd)"/><path d="M 680 172 C 680 226, 496 226, 496 180" fill="none" stroke="#8b949e" stroke-width="1.5" stroke-dasharray="5 4" marker-end="url(#ret)"/><text x="588" y="236" text-anchor="middle" font-size="11" fill="#59636e">revise synthesis</text><path d="M 704 172 C 704 288, 300 288, 300 229" fill="none" stroke="#8b949e" stroke-width="1.5" stroke-dasharray="5 4" marker-end="url(#ret)"/><text x="502" y="284" text-anchor="middle" font-size="11" fill="#59636e">lenses fall short</text></svg>
